<svg width="28" height="28" viewBox="0 0 28 28" fill="none" xmlns="http://www.w3.org/2000/svg">
<rect x="0.647461" y="0.960876" width="27.3529" height="26.7069" rx="13.3534" fill="#F4F4F4"/>
<path d="M10.361 21.2941H17.7587C19.7069 21.2941 20.4834 20.1011 20.5752 18.647L20.9422 12.8164C21.041 11.2917 19.8269 9.99994 18.2952 9.99994C17.8646 9.99994 17.4693 9.75288 17.2716 9.3717L16.7634 8.34817C16.4387 7.70582 15.5916 7.17641 14.8716 7.17641H13.2552C12.5281 7.17641 11.681 7.70582 11.3563 8.34817L10.8481 9.3717C10.6504 9.75288 10.2552 9.99994 9.82457 9.99994C8.2928 9.99994 7.07868 11.2917 7.17751 12.8164L7.54457 18.647C7.62927 20.1011 8.4128 21.2941 10.361 21.2941Z" stroke="#252422" stroke-width="1.5" stroke-linecap="round" stroke-linejoin="round"/>
<path d="M13.001 11.4117H15.1186" stroke="#252422" stroke-width="1.5" stroke-linecap="round" stroke-linejoin="round"/>
<path d="M14.0597 18.4705C15.3233 18.4705 16.3539 17.4399 16.3539 16.1764C16.3539 14.9129 15.3233 13.8823 14.0597 13.8823C12.7962 13.8823 11.7656 14.9129 11.7656 16.1764C11.7656 17.4399 12.7962 18.4705 14.0597 18.4705Z" stroke="#252422" stroke-width="1.5" stroke-linecap="round" stroke-linejoin="round"/>
</svg>
