<svg width="15" height="15" viewBox="0 0 15 15" fill="none" xmlns="http://www.w3.org/2000/svg">
<path d="M7.49999 0C3.375 0 0 3.38102 0 7.54518C0 11.3102 2.745 14.4352 6.32999 15V9.72892H4.42499V7.54518H6.32999V5.88102C6.32999 3.99096 7.44749 2.95181 9.16499 2.95181C9.98249 2.95181 10.8375 3.09488 10.8375 3.09488V4.95482H9.89249C8.96249 4.95482 8.66999 5.53464 8.66999 6.12952V7.54518H10.755L10.4175 9.72892H8.66999V15C10.4373 14.7198 12.0466 13.8144 13.2074 12.4473C14.3682 11.0803 15.004 9.3416 15 7.54518C15 3.38102 11.625 0 7.49999 0Z" fill="#023047"/>
</svg>
