<svg width="95" height="57" viewBox="0 0 95 57" fill="none" xmlns="http://www.w3.org/2000/svg">
<g clip-path="url(#clip0_29_1710)">
<path d="M0.145455 32.0884C0.174451 31.7882 0.205441 31.4882 0.232116 31.1878C0.390776 29.401 0.777349 27.6623 1.3546 25.9664C2.0717 23.8596 3.07336 21.8968 4.35596 20.0756C5.24359 18.8152 6.23794 17.6471 7.35117 16.5833C8.93044 15.0741 10.6812 13.7979 12.6128 12.7709C14.4892 11.7734 16.4648 11.0468 18.5388 10.5921C19.5356 10.3735 20.5412 10.1979 21.563 10.1424C22.2386 10.1057 22.9145 10.0741 23.5905 10.047C24.6486 10.0047 25.4794 10.937 25.4766 11.9221C25.4597 18.0254 25.4686 24.1287 25.4669 30.232C25.4668 30.5964 25.5333 30.9349 25.7747 31.2211C26.0533 31.5513 26.4102 31.7053 26.8416 31.7045C28.2187 31.7022 29.5958 31.7038 30.9729 31.7038C35.732 31.7038 40.4911 31.7102 45.2502 31.6972C46.0378 31.6951 46.976 32.2207 47.1249 33.2971C47.1785 33.6846 47.1515 34.0858 47.1358 34.4796C47.1193 34.892 47.0708 35.3029 47.0388 35.7147C46.9236 37.1972 46.6345 38.6484 46.231 40.0766C45.8349 41.4787 45.3008 42.8297 44.641 44.1288C43.7125 45.9569 42.5631 47.634 41.1983 49.1665C39.3439 51.2486 37.1937 52.9572 34.7412 54.2778C32.4824 55.4941 30.0861 56.3291 27.5474 56.7266C26.7507 56.8514 25.9446 56.9171 25.0901 57.0182C24.8347 57.0605 24.6186 56.9652 24.4258 57.091C23.9182 57.091 23.4106 57.091 22.8582 57.0717C22.6006 57.0466 22.3878 57.0409 22.1496 57.0256C21.1362 56.9542 20.1549 56.8343 19.1831 56.6464C16.817 56.1889 14.5705 55.3962 12.4514 54.2429C10.2419 53.0403 8.27404 51.5293 6.54592 49.7004C5.50207 48.5956 4.56857 47.4087 3.75205 46.1278C2.75924 44.5703 1.95967 42.92 1.36516 41.1717C0.785327 39.4665 0.391998 37.7203 0.232115 35.9241C0.205387 35.6238 0.174453 35.3239 0.142617 34.9979C0.137075 34.8424 0.141809 34.7121 0.12874 34.5836C0.121542 34.5129 0.0844215 34.4451 0.060791 34.3761C0.0607907 33.8484 0.0607907 33.3208 0.0837778 32.7529C0.119662 32.5046 0.132558 32.2965 0.145455 32.0884ZM21.7583 28.4591C21.7565 27.1914 21.7547 25.9237 21.7603 24.5997C21.7584 23.4373 21.7564 22.2749 21.778 21.0707C21.7888 21.022 21.8089 20.9734 21.809 20.9248C21.8108 19.8123 21.8117 18.6998 21.8077 17.5873C21.8074 17.5129 21.7677 17.4387 21.7556 17.3088C21.7556 16.1589 21.7556 15.009 21.7556 13.8517C21.66 13.8517 21.5989 13.8449 21.5397 13.8528C20.6384 13.9727 19.7416 14.1137 18.8568 14.3308C17.2785 14.7182 15.7711 15.2924 14.342 16.0595C12.3578 17.1245 10.5983 18.4842 9.07088 20.1448C7.83144 21.4923 6.78695 22.9733 5.95519 24.602C5.24054 26.0015 4.70739 27.4689 4.34368 28.9991C4.07717 30.1204 3.91038 31.2565 3.84449 32.404C3.79473 33.2705 3.77749 34.1412 3.87943 35.0076C3.95943 35.6875 4.01764 36.3713 4.1319 37.0456C4.48934 39.1547 5.19889 41.1461 6.22832 43.0194C7.39781 45.1475 8.90821 47.0038 10.7538 48.585C12.942 50.4598 15.4175 51.8043 18.1898 52.5956C19.6915 53.0243 21.2231 53.263 22.7852 53.3309C23.93 53.3807 25.0687 53.333 26.202 53.1875C27.5776 53.0107 28.9222 52.6908 30.2301 52.2239C31.4807 51.7775 32.6787 51.2189 33.8138 50.5298C35.7578 49.3496 37.457 47.8839 38.9065 46.1317C40.4086 44.316 41.5517 42.2962 42.334 40.0729C42.8148 38.7065 43.1202 37.2994 43.3085 35.8656C43.3274 35.7215 43.3111 35.5729 43.3111 35.4164C42.1361 35.4164 40.9833 35.4164 39.7689 35.411C38.5384 35.4123 37.308 35.4135 36.0225 35.4118C34.8553 35.4129 33.6882 35.414 32.4626 35.4078C32.1495 35.4067 31.8363 35.404 31.5232 35.4049C30.5738 35.4077 29.6244 35.4119 28.6185 35.4109C27.9811 35.4101 27.3434 35.4203 26.7063 35.4064C25.2111 35.3737 23.9602 34.7951 22.9779 33.6694C22.1472 32.7173 21.7699 31.5888 21.762 30.3318C21.7581 29.7251 21.7562 29.1184 21.7583 28.4591Z" fill="#FFCC02"/>
<path d="M94.665 22.5042C91.8306 22.5338 88.9962 22.5349 86.1618 22.536C86.0525 22.5361 85.9432 22.536 85.8055 22.536C85.9721 23.1566 86.2841 23.6531 86.7446 24.0506C87.3756 24.5952 88.1279 24.818 88.9502 24.8448C89.6925 24.869 90.3967 24.7322 91.0547 24.3794C91.4775 24.1527 91.8356 23.8458 92.1749 23.4645C92.9154 24.1325 93.6466 24.7922 94.3934 25.4659C94.0236 25.9141 93.6338 26.3042 93.1791 26.6272C92.2052 27.319 91.1047 27.6584 89.9272 27.7539C89.3857 27.7978 88.837 27.8236 88.2958 27.79C86.5596 27.6825 85.0269 27.0853 83.823 25.7878C83.0031 24.9041 82.5276 23.8427 82.3448 22.6582C82.1769 21.5702 82.1971 20.4817 82.5246 19.4219C83.1344 17.4482 84.4306 16.1319 86.3895 15.4733C87.2119 15.1969 88.0631 15.0927 88.926 15.1298C90.3725 15.192 91.674 15.6383 92.7648 16.628C93.6287 17.4119 94.1878 18.3732 94.4785 19.4947C94.5439 19.7467 94.5732 20.0081 94.642 20.2753C94.665 21.0156 94.665 21.7456 94.665 22.5042ZM90.2597 20.1452C90.6009 20.1452 90.942 20.1452 91.3117 20.1452C91.1711 19.5443 90.9066 19.0554 90.4791 18.6682C89.9251 18.1665 89.2506 17.9956 88.5179 18.0144C87.318 18.0452 86.3654 18.7107 85.9277 19.8254C85.8925 19.9149 85.8676 20.0084 85.8233 20.1452C87.3125 20.1452 88.7557 20.1452 90.2597 20.1452Z" fill="white"/>
<path d="M37.4609 0.060791C37.4928 0.920694 37.4963 1.7806 37.4996 2.6405C37.5001 2.77138 37.4996 2.90226 37.4996 3.07777C37.6275 2.98823 37.728 2.91372 37.8325 2.84546C38.483 2.42064 39.1777 2.37896 39.8897 2.64557C40.4028 2.83772 40.635 3.27577 40.7545 3.77612C40.8031 3.97986 40.8174 4.19565 40.8188 4.40615C40.8254 5.34719 40.8217 6.2883 40.8217 7.22938C40.8217 7.32934 40.8217 7.42931 40.8217 7.55103C40.2818 7.55103 39.7615 7.55103 39.2186 7.55103C39.2123 7.46136 39.2011 7.37411 39.201 7.28684C39.1996 6.49754 39.2002 5.70824 39.2002 4.91895C39.2002 4.85823 39.2011 4.7975 39.2 4.73681C39.192 4.30847 39.0049 4.03385 38.6682 3.95527C38.2066 3.84756 37.7983 4.01532 37.6287 4.41635C37.5524 4.59669 37.5089 4.80368 37.5053 4.9996C37.4913 5.74817 37.4996 6.49714 37.4996 7.24596C37.4996 7.34467 37.4996 7.44338 37.4996 7.55704C36.9573 7.55704 36.446 7.55704 35.9009 7.55704C35.9009 5.06859 35.9009 2.59287 35.9052 0.0889722C36.4172 0.060791 36.9248 0.060791 37.4609 0.060791Z" fill="white"/>
<path d="M0.142617 34.998C0.131541 35.0282 0.117621 35.0324 0.0822454 35.0404C0.0607907 34.8402 0.0607907 34.636 0.060791 34.4041C0.0844215 34.4453 0.121542 34.513 0.12874 34.5838C0.141809 34.7123 0.137075 34.8426 0.142617 34.998Z" fill="#FFEFB1"/>
<path d="M0.124576 32.0822C0.132559 32.2965 0.119662 32.5046 0.0837781 32.7244C0.060791 32.5321 0.060791 32.3279 0.060791 32.096C0.0750933 32.0707 0.0893955 32.0733 0.124576 32.0822Z" fill="#FFEFB1"/>
<path d="M24.4536 57.0912C24.6186 56.9653 24.8347 57.0607 25.0646 57.0269C25.0921 57.0378 25.0922 57.0485 25.0932 57.0752C24.8899 57.0912 24.6857 57.0912 24.4536 57.0912Z" fill="#FFEDA6"/>
<path d="M40.0932 9.59491C42.6601 9.88721 44.7348 11.0415 46.4236 12.9866C45.5197 13.7217 44.6216 14.4521 43.729 15.1781C43.4032 14.871 43.1005 14.5596 42.771 14.2799C41.8515 13.4996 40.7846 13.0356 39.5828 12.9485C37.9368 12.8293 36.4556 13.2637 35.248 14.4309C34.598 15.0592 34.1666 15.8335 33.9012 16.6983C33.6618 17.4783 33.567 18.2787 33.6146 19.0897C33.6878 20.3375 34.0555 21.4866 34.8616 22.4655C35.7884 23.5909 36.9993 24.1893 38.4357 24.3578C39.7909 24.5168 41.043 24.221 42.1982 23.5029C42.7342 23.1698 43.205 22.7592 43.6184 22.283C43.6574 22.2381 43.6849 22.1831 43.7316 22.1118C44.6585 22.8887 45.545 23.6316 46.4389 24.3808C45.9573 25.0103 45.389 25.5232 44.7674 25.9755C43.4157 26.9589 41.9058 27.5343 40.2397 27.7006C38.4928 27.875 36.794 27.6824 35.1547 27.0422C33.2047 26.2807 31.7174 24.9909 30.7528 23.1255C30.2952 22.2406 30.0287 21.2899 29.8873 20.3054C29.7939 19.6554 29.7573 19.0003 29.7843 18.3443C29.8392 17.0123 30.0993 15.7264 30.6591 14.5071C31.0898 13.5691 31.6644 12.735 32.4033 12.0146C33.4762 10.9684 34.752 10.2838 36.1946 9.9002C36.8791 9.71822 37.5749 9.61756 38.2829 9.5688C38.88 9.52769 39.4719 9.53432 40.0932 9.59491Z" fill="white"/>
<path d="M55.9095 17.3702C55.9095 16.6741 55.9095 16.0083 55.9095 15.3256C57.0644 15.3256 58.1924 15.3256 59.3369 15.3256C59.3369 19.4012 59.3369 23.466 59.3369 27.531C59.1152 27.5904 56.6237 27.6138 55.9252 27.5605C55.9252 27.1027 55.9252 26.6415 55.9252 26.1193C55.8197 26.2148 55.7549 26.267 55.6974 26.3264C54.6989 27.3582 53.4679 27.83 52.0467 27.8165C51.3269 27.8096 50.6215 27.7034 49.9474 27.4231C49.0211 27.038 48.3811 26.3734 47.9855 25.4637C47.646 24.6831 47.512 23.8565 47.5085 23.0135C47.4981 20.5335 47.5047 18.0535 47.5053 15.5735C47.5053 15.4947 47.5122 15.4159 47.5166 15.3235C48.6313 15.3235 49.7302 15.3235 50.8667 15.3235C50.8667 15.4361 50.8667 15.5439 50.8667 15.6516C50.8667 17.6357 50.8545 19.6198 50.8746 21.6036C50.8802 22.1539 50.8943 22.7089 51.0208 23.2554C51.2279 24.15 51.7403 24.6986 52.7177 24.8046C53.6554 24.9064 54.4594 24.6423 55.083 23.9182C55.5098 23.4225 55.739 22.8298 55.8364 22.1905C55.8863 21.8631 55.9044 21.5282 55.9064 21.1965C55.9141 19.9312 55.9095 18.6659 55.9095 17.3702Z" fill="white"/>
<path d="M76.2975 22.7503C76.6426 21.7877 76.9769 20.8465 77.3151 19.9067C77.8378 18.4541 78.3629 17.0023 78.8878 15.5504C78.9149 15.4756 78.9498 15.4035 78.9845 15.322C80.1634 15.322 81.3331 15.322 82.5502 15.322C80.893 19.4209 79.2454 23.496 77.6001 27.5656C76.5245 27.5656 75.4738 27.5656 74.4033 27.5656C72.7548 23.4876 71.1076 19.4127 69.4519 15.3167C70.6931 15.3167 71.8863 15.3167 73.105 15.3167C74.0654 18.021 75.026 20.726 76.0113 23.5006C76.1217 23.2106 76.205 22.9915 76.2975 22.7503Z" fill="white"/>
<path d="M65.8828 16.1737C66.6456 15.5638 67.4979 15.227 68.4458 15.1345C68.6451 15.115 68.848 15.1316 69.0915 15.1316C69.0985 16.3278 69.0932 17.5153 69.0949 18.744C68.9815 18.7369 68.8867 18.7315 68.792 18.7249C68.0904 18.6762 67.3969 18.7094 66.7391 18.9858C65.8314 19.3674 65.3042 20.0715 65.0859 21.0144C65.0318 21.2478 65.0084 21.4932 65.0076 21.7332C65.0013 23.5539 65.0041 25.3746 65.0041 27.1954C65.0041 27.3059 65.0041 27.4164 65.0041 27.5231C64.7839 27.5895 61.9499 27.6051 61.5744 27.5433C61.5744 23.4829 61.5744 19.4201 61.5742 15.3573C61.7965 15.2924 64.1348 15.2672 64.9964 15.3233C64.9989 15.5971 65.0025 15.8757 65.0039 16.1544C65.0051 16.4266 65.0041 16.6988 65.0041 17.0156C65.311 16.7214 65.5888 16.4549 65.8828 16.1737Z" fill="white"/>
<path d="M31.7264 5.10175C31.7264 4.02121 31.7264 2.97105 31.7264 1.88793C31.0932 1.88793 30.4819 1.88793 29.8572 1.88793C29.8572 1.36277 29.8572 0.870587 29.8572 0.359375C31.6781 0.359375 33.4955 0.359375 35.3331 0.359375C35.3331 0.854699 35.3331 1.34483 35.3331 1.87775C35.0364 1.89774 34.727 1.88319 34.4188 1.8859C34.1166 1.88856 33.8143 1.88648 33.4807 1.88648C33.4807 3.77932 33.4807 5.65473 33.4807 7.55146C32.8886 7.55146 32.328 7.55146 31.7264 7.55146C31.7264 6.74222 31.7264 5.93717 31.7264 5.10175Z" fill="white"/>
<path d="M43.9305 5.50801C43.6387 5.50801 43.377 5.50801 43.1132 5.50801C43.1574 5.93096 43.5173 6.2608 43.9741 6.31642C44.4133 6.36989 44.8159 6.28498 45.1648 5.99797C45.2417 5.93476 45.3234 5.87754 45.4202 5.80456C45.7172 6.11531 46.0087 6.42018 46.3083 6.73365C46.2172 6.96938 46.0086 7.08463 45.8238 7.21316C45.3962 7.51062 44.9015 7.6151 44.3935 7.64917C43.7137 7.69476 43.0594 7.60041 42.4921 7.18555C41.8883 6.74403 41.5577 6.14635 41.4866 5.39822C41.4341 4.84536 41.4926 4.31538 41.7485 3.81774C42.1868 2.96553 42.9141 2.55961 43.8466 2.49515C44.5517 2.44641 45.1883 2.62927 45.7127 3.12372C46.2179 3.59997 46.4415 4.20343 46.4681 4.88328C46.4758 5.07935 46.5227 5.28721 46.3973 5.50802C45.5935 5.50802 44.7771 5.50802 43.9305 5.50801ZM43.9706 3.76827C43.5241 3.82763 43.213 4.04203 43.1002 4.50522C43.5036 4.56774 44.6843 4.54986 44.8811 4.48037C44.7606 4.04096 44.474 3.80441 43.9706 3.76827Z" fill="white"/>
<path d="M70.1875 32.0682C70.1875 31.3627 70.1875 30.6876 70.1875 29.9958C70.532 29.9958 70.8513 29.9958 71.1922 29.9958C71.1922 30.7227 71.1922 31.4368 71.1922 32.1786C71.2543 32.154 71.2928 32.1472 71.3209 32.1264C71.9022 31.696 72.5191 31.6827 73.1423 32.0036C73.734 32.3084 73.9926 32.8456 74.0535 33.4811C74.0944 33.9077 74.0395 34.3261 73.8274 34.7129C73.5133 35.2859 73.0324 35.5677 72.3801 35.5992C71.9248 35.6212 71.5301 35.5048 71.17 35.1538C71.1631 35.3024 71.1586 35.3991 71.1524 35.534C70.9911 35.534 70.8338 35.534 70.6764 35.534C70.5261 35.534 70.3757 35.534 70.1875 35.534C70.1875 34.3755 70.1875 33.237 70.1875 32.0682ZM73.0241 33.7332C73.0172 33.2158 72.7671 32.8302 72.3527 32.7414C71.8806 32.6401 71.4885 32.7801 71.2692 33.2354C71.0682 33.6525 71.1726 34.2124 71.5042 34.476C71.7978 34.7095 72.1297 34.7584 72.4697 34.6145C72.8264 34.4636 72.9984 34.1674 73.0241 33.7332Z" fill="white"/>
<path d="M83.139 34.8392C83.2719 35.0664 83.3931 35.2747 83.5316 35.5127C83.0729 35.5127 82.6461 35.5127 82.1885 35.5127C81.9399 35.08 81.6795 34.6268 81.4066 34.1519C81.1743 34.3266 81.0135 34.5007 81.0412 34.8032C81.0622 35.0323 81.0454 35.2648 81.0454 35.5145C80.6441 35.5145 80.2651 35.5145 79.8672 35.5145C79.8672 33.6845 79.8672 31.8568 79.8672 30.0039C80.2491 30.0039 80.6359 30.0039 81.0396 30.0039C81.0396 31.0244 81.0396 32.0348 81.0396 33.1193C81.4516 32.681 81.7589 32.2394 82.1167 31.8345C82.5607 31.8345 83.0056 31.8345 83.4984 31.8345C83.1157 32.3672 82.6704 32.8138 82.2737 33.3288C82.5575 33.8246 82.8424 34.3224 83.139 34.8392Z" fill="white"/>
<path d="M93.946 33.5866C93.946 34.243 93.946 34.869 93.946 35.5143C93.5604 35.5143 93.1912 35.5143 92.8046 35.5143C92.7956 35.4303 92.7867 35.3465 92.7764 35.2508C92.1397 35.7346 91.4906 35.714 90.8425 35.3401C90.4572 35.1179 90.2347 34.7512 90.1206 34.3293C89.9911 33.8508 90.0089 33.3725 90.1739 32.9001C90.5535 31.8132 91.8256 31.4177 92.7041 32.1431C92.7204 32.0371 92.7343 31.9466 92.7502 31.8428C93.1366 31.8428 93.518 31.8428 93.9426 31.8428C93.9437 32.13 93.9453 32.4182 93.9459 32.7063C93.9464 32.9896 93.946 33.2729 93.946 33.5866ZM92.7231 33.3344C92.437 32.7936 91.9098 32.6745 91.5174 33.0638C91.2526 33.3265 91.2193 33.6461 91.3131 33.9863C91.4067 34.3263 91.678 34.5318 92.0201 34.5394C92.34 34.5465 92.618 34.3514 92.7343 34.0321C92.8127 33.8168 92.8217 33.599 92.7231 33.3344Z" fill="white"/>
<path d="M86.8763 34.9695C86.4539 35.4088 85.957 35.6014 85.3688 35.5987C85.0098 35.597 84.6689 35.5543 84.3412 35.3988C83.5506 35.0236 83.2488 34.2441 83.3238 33.5028C83.4169 32.5833 84.0025 31.9771 84.8451 31.8186C85.2209 31.7479 85.588 31.7535 85.9518 31.8547C87.1463 32.1868 87.5554 33.3654 87.2083 34.3748C87.1377 34.5798 86.9987 34.7614 86.8763 34.9695ZM84.5399 33.5866C84.5003 33.7978 84.5704 33.9883 84.6697 34.1647C84.9066 34.5855 85.5004 34.6669 85.8433 34.3332C86.1334 34.0508 86.1969 33.5524 85.973 33.2167C85.8402 33.0175 85.6643 32.8739 85.4064 32.8598C84.9509 32.8349 84.6588 33.066 84.5399 33.5866Z" fill="white"/>
<path d="M75.865 33.9045C75.8897 33.951 75.9031 33.9776 75.9348 34.0408C76.2156 33.2879 76.4859 32.5634 76.7572 31.8362C77.0935 31.8362 77.4162 31.8362 77.7391 31.8362C77.732 32.0441 76.0983 36.3947 75.7859 37.0299C75.6339 37.0299 75.4644 37.0299 75.295 37.0299C75.1361 37.0299 74.9773 37.0299 74.7736 37.0299C74.8952 36.6999 75.001 36.4099 75.1089 36.1207C75.1865 35.9128 75.2576 35.7017 75.3495 35.5003C75.4146 35.3575 75.4013 35.2381 75.3404 35.0975C74.9035 34.0884 74.4743 33.0759 74.0427 32.0645C74.0156 32.0011 73.9883 31.9379 73.9495 31.8477C74.3244 31.8477 74.6716 31.8477 75.0429 31.8477C75.3094 32.5174 75.5815 33.201 75.865 33.9045Z" fill="white"/>
<path d="M88.0472 31.828C88.3373 31.828 88.598 31.828 88.8703 31.828C88.8785 31.9775 88.885 32.0964 88.8937 32.2549C89.2125 31.9723 89.5366 31.7485 89.9816 31.7763C89.9816 32.2113 89.9816 32.6312 89.9816 33.0808C89.823 33.0808 89.6746 33.0637 89.5315 33.084C89.1237 33.142 88.8886 33.4139 88.8845 33.8258C88.8794 34.3213 88.8832 34.8168 88.8832 35.3124C88.8832 35.3716 88.8832 35.4308 88.8832 35.5118C88.4779 35.5118 88.0903 35.5118 87.6848 35.5118C87.6848 34.2942 87.6848 33.0771 87.6848 31.828C87.8012 31.828 87.9094 31.828 88.0472 31.828Z" fill="white"/>
<path d="M39.7996 35.4138C39.6477 37.0109 39.2451 38.547 38.6051 40.0195C37.8493 41.7586 36.8205 43.3158 35.5207 44.6993C34.1354 46.1737 32.5396 47.3574 30.721 48.2402C29.0812 49.0363 27.3554 49.5486 25.5415 49.7375C24.8397 49.8106 24.1312 49.8631 23.4264 49.8557C21.8441 49.8391 20.2913 49.6005 18.7763 49.1283C16.6046 48.4513 14.6607 47.3656 12.9472 45.8748C11.4158 44.5424 10.1615 42.9853 9.20785 41.1877C8.29981 39.4761 7.70956 37.6646 7.46704 35.7432C7.40155 35.2244 7.38036 34.6998 7.34289 34.1776C7.32414 33.9163 7.29678 33.654 7.30354 33.3929C7.36297 31.0998 7.80979 28.8932 8.76955 26.7977C9.474 25.2597 10.3959 23.8665 11.5277 22.6143C12.7365 21.2769 14.1327 20.1689 15.7092 19.2902C17.3748 18.3618 19.1514 17.7546 21.0325 17.4504C21.2515 17.415 21.473 17.395 21.7198 17.3662C21.7676 17.4389 21.8073 17.5131 21.8076 17.5874C21.8115 18.6999 21.8107 19.8124 21.8089 20.9249C21.8088 20.9736 21.7887 21.0222 21.7396 21.0908C20.1628 21.3281 18.7276 21.8459 17.3825 22.6145C16.144 23.3221 15.0639 24.2235 14.124 25.2977C13.0595 26.5144 12.2564 27.8827 11.7269 29.4069C11.1956 30.9361 10.9357 32.5093 11.0501 34.1327C11.0812 34.5739 11.1087 35.017 11.1738 35.4539C11.5505 37.9835 12.6295 40.1836 14.3511 42.0642C15.5386 43.3613 16.9403 44.3742 18.556 45.0836C20.5787 45.9717 22.6928 46.3026 24.8863 46.0882C26.4697 45.9335 27.9733 45.4854 29.3888 44.7507C30.7946 44.021 32.0169 43.0584 33.0676 41.8754C34.1814 40.6213 35.0094 39.1996 35.5551 37.6154C35.8015 36.9 35.9891 36.1688 36.0774 35.415C37.3078 35.4137 38.5383 35.4124 39.7996 35.4138Z" fill="#FF9101"/>
<path d="M32.4919 35.4115C32.427 36.0392 32.2242 36.6314 31.9687 37.2041C31.1436 39.0544 29.847 40.4849 28.0876 41.4879C26.9939 42.1114 25.8146 42.4837 24.5588 42.5989C22.5677 42.7815 20.6882 42.4199 18.9721 41.3739C16.6776 39.9754 15.2443 37.957 14.6935 35.3185C14.5291 34.5309 14.4815 33.7329 14.5395 32.9387C14.6833 30.9706 15.37 29.2051 16.656 27.6953C17.9967 26.1213 19.6719 25.0899 21.7287 24.6572C21.7548 25.9237 21.7566 27.1914 21.732 28.4882C20.9439 28.8015 20.2959 29.2517 19.732 29.8359C18.8327 30.7678 18.3398 31.8846 18.2442 33.1643C18.1601 34.2893 18.4172 35.3459 19.0035 36.3204C20.2305 38.3602 22.6277 39.3693 24.9921 38.7667C26.075 38.4907 26.9715 37.9079 27.703 37.075C28.1314 36.5873 28.4731 36.04 28.6751 35.4155C29.6245 35.4119 30.5738 35.4077 31.5232 35.4049C31.8364 35.404 32.1495 35.4067 32.4919 35.4115Z" fill="#FF6838"/>
<path d="M43.9955 3.76807C44.4739 3.80447 44.7605 4.04102 44.881 4.48043C44.6842 4.54992 43.5035 4.5678 43.1001 4.50528C43.2129 4.04209 43.524 3.8277 43.9955 3.76807Z" fill="#F6F5F6"/>
</g>
<defs>
<clipPath id="clip0_29_1710">
<rect width="94.6042" height="57" fill="white"/>
</clipPath>
</defs>
</svg>
