<svg width="19" height="19" viewBox="0 0 19 19" fill="none" xmlns="http://www.w3.org/2000/svg">
<path d="M10.271 2.00092C10.8183 1.99882 11.3656 2.00432 11.9127 2.01742L12.0582 2.02267C12.2262 2.02867 12.3919 2.03617 12.5921 2.04517C13.3901 2.08267 13.9346 2.20867 14.4123 2.39391C14.9073 2.5844 15.3242 2.84239 15.7412 3.25938C16.1225 3.63407 16.4176 4.08731 16.6059 4.58758C16.7912 5.06532 16.9172 5.61055 16.9547 6.40852C16.9637 6.60802 16.9712 6.77451 16.9772 6.9425L16.9817 7.088C16.995 7.63488 17.0007 8.18191 16.9989 8.72894L16.9997 9.28843V10.2709C17.0015 10.8182 16.9958 11.3655 16.9824 11.9126L16.9779 12.0581C16.9719 12.2261 16.9644 12.3918 16.9554 12.5921C16.9179 13.39 16.7904 13.9345 16.6059 14.4123C16.4182 14.9131 16.123 15.3667 15.7412 15.7412C15.3662 16.1224 14.9128 16.4175 14.4123 16.6059C13.9346 16.7912 13.3901 16.9172 12.5921 16.9547C12.3919 16.9637 12.2262 16.9712 12.0582 16.9772L11.9127 16.9817C11.3656 16.995 10.8183 17.0007 10.271 16.9989L9.71154 16.9997H8.72984C8.18256 17.0015 7.63529 16.9958 7.08817 16.9824L6.94268 16.9779C6.76465 16.9715 6.58665 16.964 6.40871 16.9554C5.61075 16.9179 5.06628 16.7904 4.5878 16.6059C4.08734 16.4179 3.63403 16.1228 3.25962 15.7412C2.87792 15.3664 2.58257 14.9129 2.39416 14.4123C2.20892 13.9345 2.08293 13.39 2.04543 12.5921C2.03708 12.4141 2.02958 12.2361 2.02293 12.0581L2.01918 11.9126C2.00536 11.3655 1.9991 10.8182 2.00043 10.2709V8.72894C1.99834 8.18191 2.00384 7.63488 2.01693 7.088L2.02218 6.9425C2.02818 6.77451 2.03568 6.60802 2.04468 6.40852C2.08218 5.6098 2.20817 5.06607 2.39341 4.58758C2.58193 4.08707 2.87786 3.63395 3.26037 3.26013C3.63452 2.87821 4.08755 2.58258 4.5878 2.39391C5.06628 2.20867 5.61 2.08267 6.40871 2.04517L6.94268 2.02267L7.08817 2.01892C7.63503 2.0051 8.18206 1.99885 8.72909 2.00017L10.271 2.00092ZM9.50005 5.7508C9.0032 5.74377 8.50992 5.83556 8.04885 6.02084C7.58779 6.20611 7.16815 6.48118 6.81432 6.83005C6.46049 7.17892 6.17952 7.59464 5.98774 8.05304C5.79597 8.51144 5.69721 9.00339 5.69721 9.50029C5.69721 9.9972 5.79597 10.4891 5.98774 10.9475C6.17952 11.406 6.46049 11.8217 6.81432 12.1705C7.16815 12.5194 7.58779 12.7945 8.04885 12.9797C8.50992 13.165 9.0032 13.2568 9.50005 13.2498C10.4946 13.2498 11.4483 12.8547 12.1516 12.1515C12.8548 11.4482 13.2499 10.4944 13.2499 9.49992C13.2499 8.50539 12.8548 7.55159 12.1516 6.84836C11.4483 6.14512 10.4946 5.7508 9.50005 5.7508ZM9.50005 7.25074C9.79891 7.24524 10.0959 7.29934 10.3736 7.40989C10.6513 7.52045 10.9042 7.68524 11.1175 7.89463C11.3309 8.10403 11.5003 8.35383 11.616 8.62945C11.7317 8.90508 11.7913 9.20099 11.7914 9.49991C11.7914 9.79883 11.7319 10.0948 11.6163 10.3704C11.5007 10.6461 11.3313 10.8959 11.1181 11.1054C10.9048 11.3149 10.652 11.4798 10.3743 11.5904C10.0966 11.701 9.79966 11.7552 9.5008 11.7498C8.90409 11.7498 8.33182 11.5128 7.90989 11.0909C7.48795 10.6689 7.25091 10.0966 7.25091 9.49992C7.25091 8.9032 7.48795 8.33092 7.90989 7.90898C8.33182 7.48704 8.90409 7.24999 9.5008 7.24999L9.50005 7.25074ZM13.4373 4.62583C13.1954 4.63552 12.9666 4.73844 12.7988 4.91305C12.6311 5.08766 12.5374 5.32041 12.5374 5.56255C12.5374 5.80469 12.6311 6.03744 12.7988 6.21205C12.9666 6.38666 13.1954 6.48959 13.4373 6.49927C13.686 6.49927 13.9244 6.4005 14.1002 6.22469C14.276 6.04888 14.3748 5.81043 14.3748 5.5618C14.3748 5.31317 14.276 5.07472 14.1002 4.89891C13.9244 4.7231 13.686 4.62433 13.4373 4.62433V4.62583Z" fill="#023047"/>
</svg>
