
<svg width="15" height="15" viewBox="0 0 15 15" fill="none" xmlns="http://www.w3.org/2000/svg">
<g clip-path="url(#clip0_29_1778)">
<path d="M11.4844 0H3.51562C1.574 0 0 1.574 0 3.51562V11.4844C0 13.426 1.574 15 3.51562 15H11.4844C13.426 15 15 13.426 15 11.4844V3.51562C15 1.574 13.426 0 11.4844 0Z" fill="white"/>
<path d="M11.4844 0H3.51562C1.574 0 0 1.574 0 3.51562V11.4844C0 13.426 1.574 15 3.51562 15H11.4844C13.426 15 15 13.426 15 11.4844V3.51562C15 1.574 13.426 0 11.4844 0Z" fill="#023047"/>
<path d="M10.8231 12.755H12.5382C12.6003 12.755 12.6599 12.7303 12.7039 12.6864C12.7478 12.6424 12.7725 12.5828 12.7726 12.5207L12.7734 8.89711C12.7734 7.00318 12.3653 5.54742 10.1521 5.54742C9.31072 5.51613 8.5173 5.94984 8.08916 6.67406C8.08707 6.67758 8.08388 6.68032 8.08009 6.68185C8.07629 6.68339 8.0721 6.68364 8.06815 6.68257C8.0642 6.68151 8.0607 6.67917 8.0582 6.67593C8.0557 6.67269 8.05433 6.66872 8.0543 6.66463V5.95664C8.0543 5.89448 8.0296 5.83487 7.98565 5.79091C7.9417 5.74696 7.88208 5.72227 7.81992 5.72227H6.19236C6.1302 5.72227 6.07059 5.74696 6.02664 5.79091C5.98268 5.83487 5.95799 5.89448 5.95799 5.95664V12.5203C5.95799 12.5825 5.98268 12.6421 6.02664 12.686C6.07059 12.73 6.1302 12.7547 6.19236 12.7547H7.90729C7.96945 12.7547 8.02906 12.73 8.07301 12.686C8.11697 12.6421 8.14166 12.5825 8.14166 12.5203V9.2758C8.14166 8.3584 8.31568 7.46994 9.45305 7.46994C10.5742 7.46994 10.5888 8.51971 10.5888 9.33521V12.5206C10.5888 12.5828 10.6135 12.6424 10.6574 12.6863C10.7014 12.7303 10.761 12.755 10.8231 12.755ZM2.22656 3.49377C2.22656 4.18898 2.79885 4.76098 3.49406 4.76098C4.1891 4.76092 4.76103 4.18857 4.76103 3.49354C4.76092 2.7985 4.18893 2.22656 3.49383 2.22656C2.79855 2.22656 2.22656 2.79861 2.22656 3.49377ZM2.63432 12.755H4.35152C4.41368 12.755 4.4733 12.7303 4.51725 12.6863C4.56121 12.6424 4.5859 12.5828 4.5859 12.5206V5.95664C4.5859 5.89448 4.56121 5.83487 4.51725 5.79091C4.4733 5.74696 4.41368 5.72227 4.35152 5.72227H2.63432C2.57216 5.72227 2.51254 5.74696 2.46859 5.79091C2.42463 5.83487 2.39994 5.89448 2.39994 5.95664V12.5206C2.39994 12.5828 2.42463 12.6424 2.46859 12.6863C2.51254 12.7303 2.57216 12.755 2.63432 12.755Z" fill="white"/>
</g>
<defs>
<clipPath id="clip0_29_1778">
<rect width="15" height="15" fill="white"/>
</clipPath>
</defs>
</svg>
