<svg width="95" height="57" viewBox="0 0 95 57" fill="none" xmlns="http://www.w3.org/2000/svg">
<g clip-path="url(#clip0_40_102)">
<path d="M0.145211 32.0885C0.174207 31.7883 0.205196 31.4883 0.231872 31.1879C0.390532 29.4011 0.777105 27.6624 1.35435 25.9664C2.07145 23.8596 3.07311 21.8969 4.35571 20.0757C5.24335 18.8153 6.2377 17.6472 7.35092 16.5834C8.9302 15.0742 10.6809 13.798 12.6126 12.771C14.4889 11.7735 16.4645 11.0469 18.5386 10.5922C19.5353 10.3736 20.541 10.198 21.5628 10.1425C22.2383 10.1058 22.9142 10.0742 23.5902 10.0471C24.6483 10.0048 25.4791 10.9371 25.4764 11.9222C25.4595 18.0255 25.4684 24.1288 25.4666 30.2321C25.4665 30.5965 25.5331 30.935 25.7745 31.2212C26.053 31.5514 26.41 31.7054 26.8413 31.7046C28.2184 31.7023 29.5955 31.7039 30.9726 31.7039C35.7317 31.7039 40.4909 31.7103 45.25 31.6973C46.0376 31.6952 46.9757 32.2208 47.1246 33.2972C47.1782 33.6847 47.1512 34.0858 47.1355 34.4797C47.1191 34.892 47.0705 35.303 47.0385 35.7148C46.9233 37.1973 46.6343 38.6485 46.2308 40.0767C45.8346 41.4788 45.3005 42.8297 44.6407 44.1289C43.7123 45.9569 42.5628 47.6341 41.198 49.1666C39.3437 51.2487 37.1935 52.9573 34.741 54.2779C32.4821 55.4942 30.0859 56.3291 27.5472 56.7267C26.7504 56.8515 25.9444 56.9172 25.0898 57.0183C24.8345 57.0606 24.6183 56.9653 24.4255 57.0911C23.9179 57.0911 23.4103 57.0911 22.858 57.0718C22.6004 57.0467 22.3875 57.0409 22.1494 57.0257C21.136 56.9543 20.1547 56.8344 19.1829 56.6465C16.8167 56.189 14.5703 55.3963 12.4512 54.243C10.2416 53.0404 8.2738 51.5294 6.54567 49.7005C5.50183 48.5957 4.56833 47.4088 3.75181 46.1279C2.759 44.5704 1.95943 42.9201 1.36492 41.1718C0.785083 39.4666 0.391754 37.7204 0.231871 35.9242C0.205143 35.6239 0.174209 35.324 0.142373 34.998C0.136831 34.8425 0.141565 34.7122 0.128496 34.5837C0.121297 34.513 0.0841773 34.4452 0.0605469 34.3761C0.0605466 33.8485 0.0605466 33.3209 0.0835337 32.753C0.119417 32.5047 0.132314 32.2966 0.145211 32.0885ZM21.7581 28.4592C21.7563 27.1915 21.7545 25.9238 21.76 24.5998C21.7581 23.4374 21.7562 22.275 21.7778 21.0707C21.7886 21.0221 21.8087 20.9735 21.8088 20.9249C21.8106 19.8124 21.8114 18.6999 21.8074 17.5874C21.8072 17.513 21.7675 17.4388 21.7554 17.3089C21.7554 16.159 21.7554 15.0091 21.7554 13.8518C21.6598 13.8518 21.5986 13.845 21.5394 13.8528C20.6382 13.9728 19.7414 14.1138 18.8566 14.3309C17.2782 14.7183 15.7709 15.2924 14.3418 16.0596C12.3576 17.1246 10.5981 18.4843 9.07064 20.1449C7.8312 21.4924 6.7867 22.9733 5.95494 24.6021C5.24029 26.0016 4.70715 27.469 4.34343 28.9992C4.07693 30.1205 3.91014 31.2566 3.84424 32.4041C3.79449 33.2705 3.77724 34.1413 3.87918 35.0076C3.95918 35.6876 4.01739 36.3714 4.13166 37.0457C4.4891 39.1548 5.19865 41.1462 6.22807 43.0195C7.39757 45.1476 8.90797 47.0039 10.7536 48.5851C12.9418 50.4599 15.4172 51.8044 18.1896 52.5957C19.6912 53.0243 21.2229 53.2631 22.7849 53.331C23.9298 53.3807 25.0685 53.3331 26.2018 53.1875C27.5774 53.0108 28.922 52.6909 30.2298 52.224C31.4805 51.7776 32.6784 51.219 33.8136 50.5299C35.7575 49.3497 37.4568 47.884 38.9063 46.1318C40.4083 44.3161 41.5514 42.2963 42.3338 40.073C42.8146 38.7066 43.12 37.2995 43.3083 35.8657C43.3272 35.7216 43.3108 35.573 43.3108 35.4165C42.1358 35.4165 40.983 35.4165 39.7687 35.4111C38.5382 35.4123 37.3077 35.4136 36.0222 35.4119C34.8551 35.413 33.688 35.4141 32.4624 35.4079C32.1492 35.4068 31.8361 35.4041 31.523 35.405C30.5736 35.4078 29.6242 35.412 28.6183 35.411C27.9809 35.4102 27.3432 35.4204 26.706 35.4065C25.2109 35.3738 23.96 34.7952 22.9777 33.6695C22.1469 32.7174 21.7697 31.5889 21.7617 30.3319C21.7579 29.7252 21.756 29.1185 21.7581 28.4592Z" fill="#FFCC02"/>
<path d="M94.665 22.5043C91.8306 22.5339 88.9962 22.535 86.1618 22.5361C86.0525 22.5362 85.9432 22.5361 85.8055 22.5361C85.9721 23.1567 86.2841 23.6532 86.7446 24.0507C87.3756 24.5953 88.1279 24.8181 88.9502 24.8449C89.6925 24.8691 90.3967 24.7323 91.0547 24.3795C91.4775 24.1528 91.8356 23.8459 92.1749 23.4646C92.9154 24.1326 93.6466 24.7923 94.3934 25.466C94.0236 25.9142 93.6338 26.3043 93.1791 26.6273C92.2052 27.3191 91.1047 27.6585 89.9272 27.754C89.3857 27.7979 88.837 27.8237 88.2958 27.7901C86.5596 27.6826 85.0269 27.0854 83.823 25.7878C83.0031 24.9042 82.5276 23.8428 82.3448 22.6582C82.1769 21.5703 82.1971 20.4818 82.5246 19.422C83.1344 17.4483 84.4306 16.132 86.3895 15.4734C87.2119 15.197 88.0631 15.0928 88.926 15.1299C90.3725 15.1921 91.674 15.6384 92.7648 16.6281C93.6287 17.4119 94.1878 18.3733 94.4785 19.4948C94.5439 19.7468 94.5732 20.0082 94.642 20.2754C94.665 21.0156 94.665 21.7457 94.665 22.5043ZM90.2597 20.1453C90.6009 20.1453 90.942 20.1453 91.3117 20.1453C91.1711 19.5444 90.9066 19.0555 90.4791 18.6683C89.9251 18.1666 89.2506 17.9957 88.5179 18.0145C87.318 18.0453 86.3654 18.7108 85.9277 19.8255C85.8925 19.915 85.8676 20.0085 85.8233 20.1453C87.3125 20.1453 88.7557 20.1453 90.2597 20.1453Z" fill="white"/>
<path d="M37.4609 0.06073C37.4928 0.920633 37.4963 1.78054 37.4996 2.64044C37.5001 2.77132 37.4996 2.9022 37.4996 3.07771C37.6275 2.98817 37.728 2.91366 37.8325 2.8454C38.483 2.42058 39.1777 2.3789 39.8897 2.64551C40.4028 2.83766 40.635 3.27571 40.7545 3.77606C40.8031 3.9798 40.8174 4.19559 40.8188 4.40609C40.8254 5.34713 40.8217 6.28824 40.8217 7.22932C40.8217 7.32928 40.8217 7.42924 40.8217 7.55097C40.2818 7.55097 39.7615 7.55097 39.2186 7.55097C39.2123 7.4613 39.2011 7.37405 39.201 7.28678C39.1996 6.49748 39.2002 5.70818 39.2002 4.91889C39.2002 4.85817 39.2011 4.79744 39.2 4.73674C39.192 4.3084 39.0049 4.03379 38.6682 3.95521C38.2066 3.8475 37.7983 4.01526 37.6287 4.41629C37.5524 4.59663 37.5089 4.80362 37.5053 4.99954C37.4913 5.7481 37.4996 6.49708 37.4996 7.2459C37.4996 7.34461 37.4996 7.44332 37.4996 7.55698C36.9573 7.55698 36.446 7.55698 35.9009 7.55698C35.9009 5.06853 35.9009 2.59281 35.9052 0.0889111C36.4172 0.06073 36.9248 0.06073 37.4609 0.06073Z" fill="white"/>
<path d="M0.142373 34.998C0.131297 35.0281 0.117376 35.0323 0.0820012 35.0403C0.0605466 34.8401 0.0605466 34.6359 0.0605469 34.404C0.0841773 34.4452 0.121297 34.513 0.128496 34.5837C0.141565 34.7122 0.136831 34.8425 0.142373 34.998Z" fill="#FFEFB1"/>
<path d="M0.124332 32.0822C0.132314 32.2966 0.119418 32.5047 0.083534 32.7245C0.0605469 32.5321 0.0605469 32.328 0.0605469 32.096C0.0748491 32.0708 0.0891513 32.0734 0.124332 32.0822Z" fill="#FFEFB1"/>
<path d="M24.4536 57.0911C24.6186 56.9652 24.8347 57.0606 25.0646 57.0269C25.0921 57.0378 25.0922 57.0484 25.0932 57.0751C24.8899 57.0911 24.6857 57.0911 24.4536 57.0911Z" fill="#FFEDA6"/>
<path d="M40.0929 9.59494C42.6599 9.88724 44.7345 11.0415 46.4234 12.9866C45.5195 13.7217 44.6214 14.4521 43.7287 15.1781C43.403 14.871 43.1003 14.5596 42.7707 14.28C41.8512 13.4997 40.7843 13.0356 39.5825 12.9485C37.9366 12.8293 36.4554 13.2638 35.2478 14.431C34.5978 15.0592 34.1664 15.8335 33.901 16.6984C33.6616 17.4783 33.5668 18.2787 33.6143 19.0897C33.6875 20.3376 34.0552 21.4866 34.8614 22.4655C35.7882 23.591 36.9991 24.1893 38.4354 24.3578C39.7906 24.5168 41.0427 24.221 42.198 23.503C42.734 23.1698 43.2048 22.7593 43.6181 22.283C43.6572 22.2381 43.6847 22.1832 43.7313 22.1118C44.6583 22.8887 45.5447 23.6316 46.4387 24.3808C45.9571 25.0103 45.3888 25.5232 44.7672 25.9755C43.4155 26.959 41.9056 27.5343 40.2395 27.7006C38.4926 27.875 36.7938 27.6824 35.1544 27.0422C33.2045 26.2807 31.7172 24.9909 30.7526 23.1256C30.295 22.2406 30.0284 21.29 29.887 20.3055C29.7937 19.6554 29.757 19.0004 29.7841 18.3443C29.839 17.0123 30.0991 15.7265 30.6589 14.5072C31.0895 13.5691 31.6641 12.735 32.403 12.0146C33.476 10.9685 34.7517 10.2838 36.1944 9.90023C36.8788 9.71825 37.5746 9.61759 38.2827 9.56883C38.8797 9.52772 39.4716 9.53435 40.0929 9.59494Z" fill="white"/>
<path d="M55.9093 17.3703C55.9093 16.6742 55.9093 16.0084 55.9093 15.3257C57.0642 15.3257 58.1921 15.3257 59.3367 15.3257C59.3367 19.4012 59.3367 23.466 59.3367 27.531C59.115 27.5904 56.6234 27.6138 55.925 27.5606C55.925 27.1028 55.925 26.6416 55.925 26.1193C55.8195 26.2148 55.7547 26.2671 55.6972 26.3265C54.6986 27.3583 53.4677 27.8301 52.0464 27.8165C51.3267 27.8097 50.6212 27.7035 49.9472 27.4232C49.0209 27.038 48.3809 26.3734 47.9853 25.4638C47.6457 24.6832 47.5118 23.8566 47.5083 23.0136C47.4979 20.5336 47.5044 18.0536 47.505 15.5735C47.505 15.4948 47.512 15.416 47.5164 15.3235C48.6311 15.3235 49.7299 15.3235 50.8665 15.3235C50.8665 15.4362 50.8665 15.544 50.8665 15.6517C50.8665 17.6357 50.8543 19.6198 50.8744 21.6037C50.88 22.154 50.894 22.709 51.0205 23.2554C51.2277 24.1501 51.7401 24.6986 52.7175 24.8047C53.6551 24.9064 54.4591 24.6424 55.0827 23.9182C55.5096 23.4226 55.7388 22.8298 55.8361 22.1906C55.886 21.8631 55.9041 21.5283 55.9061 21.1965C55.9139 19.9313 55.9093 18.666 55.9093 17.3703Z" fill="white"/>
<path d="M76.2977 22.7503C76.6429 21.7877 76.9772 20.8465 77.3153 19.9067C77.838 18.4541 78.3632 17.0023 78.8881 15.5504C78.9151 15.4756 78.95 15.4035 78.9847 15.322C80.1636 15.322 81.3333 15.322 82.5504 15.322C80.8932 19.4209 79.2456 23.496 77.6003 27.5656C76.5248 27.5656 75.4741 27.5656 74.4035 27.5656C72.7551 23.4876 71.1079 19.4127 69.4521 15.3167C70.6934 15.3167 71.8866 15.3167 73.1052 15.3167C74.0656 18.021 75.0263 20.726 76.0116 23.5006C76.1219 23.2106 76.2053 22.9915 76.2977 22.7503Z" fill="white"/>
<path d="M65.8828 16.1737C66.6456 15.5638 67.4979 15.227 68.4458 15.1345C68.6451 15.115 68.848 15.1316 69.0915 15.1316C69.0985 16.3278 69.0932 17.5153 69.0949 18.744C68.9815 18.7369 68.8867 18.7315 68.792 18.7249C68.0904 18.6762 67.3969 18.7094 66.7391 18.9858C65.8314 19.3674 65.3042 20.0715 65.0859 21.0144C65.0318 21.2478 65.0084 21.4932 65.0076 21.7332C65.0013 23.5539 65.0041 25.3746 65.0041 27.1954C65.0041 27.3059 65.0041 27.4164 65.0041 27.5231C64.7839 27.5895 61.9499 27.6051 61.5744 27.5433C61.5744 23.4829 61.5744 19.4201 61.5742 15.3573C61.7965 15.2924 64.1348 15.2672 64.9964 15.3233C64.9989 15.5971 65.0025 15.8757 65.0039 16.1544C65.0051 16.4266 65.0041 16.6988 65.0041 17.0156C65.311 16.7214 65.5888 16.4549 65.8828 16.1737Z" fill="white"/>
<path d="M31.7262 5.10175C31.7262 4.02121 31.7262 2.97105 31.7262 1.88793C31.093 1.88793 30.4816 1.88793 29.8569 1.88793C29.8569 1.36277 29.8569 0.870587 29.8569 0.359375C31.6778 0.359375 33.4953 0.359375 35.3329 0.359375C35.3329 0.854699 35.3329 1.34483 35.3329 1.87775C35.0362 1.89774 34.7268 1.88319 34.4186 1.8859C34.1163 1.88856 33.8141 1.88648 33.4804 1.88648C33.4804 3.77932 33.4804 5.65473 33.4804 7.55146C32.8884 7.55146 32.3277 7.55146 31.7262 7.55146C31.7262 6.74222 31.7262 5.93717 31.7262 5.10175Z" fill="white"/>
<path d="M43.9303 5.50804C43.6384 5.50804 43.3768 5.50804 43.113 5.50804C43.1572 5.93099 43.5171 6.26083 43.9739 6.31645C44.4131 6.36992 44.8157 6.28501 45.1646 5.998C45.2414 5.93479 45.3232 5.87757 45.4199 5.80459C45.717 6.11534 46.0084 6.42021 46.3081 6.73368C46.217 6.96941 46.0084 7.08466 45.8236 7.21319C45.3959 7.51065 44.9012 7.61513 44.3933 7.6492C43.7134 7.69479 43.0592 7.60045 42.4918 7.18558C41.888 6.74406 41.5574 6.14638 41.4864 5.39825C41.4338 4.84539 41.4924 4.31541 41.7483 3.81777C42.1865 2.96556 42.9138 2.55964 43.8464 2.49518C44.5515 2.44644 45.188 2.6293 45.7125 3.12375C46.2176 3.6 46.4413 4.20346 46.4679 4.88331C46.4756 5.07938 46.5224 5.28724 46.3971 5.50805C45.5932 5.50805 44.7769 5.50805 43.9303 5.50804ZM43.9704 3.7683C43.5239 3.82766 43.2128 4.04206 43.0999 4.50525C43.5033 4.56777 44.684 4.54989 44.8808 4.4804C44.7604 4.04099 44.4738 3.80444 43.9704 3.7683Z" fill="white"/>
<path d="M70.1875 32.0682C70.1875 31.3627 70.1875 30.6875 70.1875 29.9958C70.532 29.9958 70.8513 29.9958 71.1922 29.9958C71.1922 30.7226 71.1922 31.4367 71.1922 32.1785C71.2543 32.154 71.2928 32.1472 71.3209 32.1264C71.9022 31.696 72.5191 31.6826 73.1423 32.0036C73.734 32.3083 73.9926 32.8455 74.0535 33.481C74.0944 33.9076 74.0395 34.326 73.8274 34.7129C73.5133 35.2858 73.0324 35.5676 72.3801 35.5992C71.9248 35.6211 71.5301 35.5047 71.17 35.1537C71.1631 35.3023 71.1586 35.399 71.1524 35.534C70.9911 35.534 70.8338 35.534 70.6764 35.534C70.5261 35.534 70.3757 35.534 70.1875 35.534C70.1875 34.3754 70.1875 33.237 70.1875 32.0682ZM73.0241 33.7331C73.0172 33.2157 72.7671 32.8302 72.3527 32.7413C71.8806 32.6401 71.4885 32.7801 71.2692 33.2353C71.0682 33.6525 71.1726 34.2123 71.5042 34.476C71.7978 34.7094 72.1297 34.7583 72.4697 34.6145C72.8264 34.4635 72.9984 34.1674 73.0241 33.7331Z" fill="white"/>
<path d="M83.139 34.8393C83.2719 35.0665 83.3931 35.2748 83.5316 35.5128C83.0729 35.5128 82.6461 35.5128 82.1885 35.5128C81.9399 35.0801 81.6795 34.6269 81.4066 34.1519C81.1743 34.3267 81.0135 34.5008 81.0412 34.8033C81.0622 35.0324 81.0454 35.2649 81.0454 35.5146C80.6441 35.5146 80.2651 35.5146 79.8672 35.5146C79.8672 33.6846 79.8672 31.8569 79.8672 30.004C80.2491 30.004 80.6359 30.004 81.0396 30.004C81.0396 31.0245 81.0396 32.0349 81.0396 33.1194C81.4516 32.6811 81.7589 32.2394 82.1167 31.8346C82.5607 31.8346 83.0056 31.8346 83.4984 31.8346C83.1157 32.3673 82.6704 32.8139 82.2737 33.3289C82.5575 33.8247 82.8424 34.3225 83.139 34.8393Z" fill="white"/>
<path d="M93.946 33.5866C93.946 34.243 93.946 34.869 93.946 35.5143C93.5604 35.5143 93.1912 35.5143 92.8046 35.5143C92.7956 35.4303 92.7867 35.3465 92.7764 35.2507C92.1397 35.7346 91.4906 35.714 90.8425 35.3401C90.4572 35.1178 90.2347 34.7511 90.1206 34.3293C89.9911 33.8508 90.0089 33.3725 90.1739 32.9001C90.5535 31.8132 91.8256 31.4176 92.7041 32.1431C92.7204 32.0371 92.7343 31.9466 92.7502 31.8428C93.1366 31.8428 93.518 31.8428 93.9426 31.8428C93.9437 32.1299 93.9453 32.4181 93.9459 32.7063C93.9464 32.9896 93.946 33.2729 93.946 33.5866ZM92.7231 33.3343C92.437 32.7936 91.9098 32.6744 91.5174 33.0638C91.2526 33.3265 91.2193 33.646 91.3131 33.9862C91.4067 34.3262 91.678 34.5317 92.0201 34.5393C92.34 34.5464 92.618 34.3514 92.7343 34.032C92.8127 33.8168 92.8217 33.5989 92.7231 33.3343Z" fill="white"/>
<path d="M86.8765 34.9696C86.4542 35.4089 85.9572 35.6015 85.3691 35.5988C85.0101 35.5972 84.6691 35.5544 84.3414 35.3989C83.5509 35.0237 83.249 34.2442 83.3241 33.5029C83.4172 32.5834 84.0027 31.9773 84.8453 31.8187C85.2212 31.748 85.5883 31.7537 85.952 31.8548C87.1466 32.1869 87.5556 33.3655 87.2085 34.3749C87.138 34.58 86.9989 34.7615 86.8765 34.9696ZM84.5401 33.5867C84.5005 33.7979 84.5707 33.9885 84.6699 34.1648C84.9069 34.5856 85.5007 34.667 85.8436 34.3333C86.1337 34.0509 86.1971 33.5526 85.9733 33.2168C85.8405 33.0177 85.6645 32.874 85.4067 32.8599C84.9511 32.835 84.6591 33.0661 84.5401 33.5867Z" fill="white"/>
<path d="M75.8647 33.9046C75.8895 33.951 75.9028 33.9776 75.9345 34.0409C76.2154 33.288 76.4857 32.5635 76.757 31.8362C77.0933 31.8362 77.416 31.8362 77.7388 31.8362C77.7318 32.0441 76.0981 36.3947 75.7857 37.03C75.6336 37.03 75.4642 37.03 75.2947 37.03C75.1359 37.03 74.977 37.03 74.7734 37.03C74.8949 36.7 75.0007 36.41 75.1087 36.1207C75.1863 35.9129 75.2573 35.7018 75.3492 35.5003C75.4144 35.3575 75.401 35.2381 75.3402 35.0975C74.9032 34.0884 74.4741 33.0759 74.0424 32.0645C74.0154 32.0012 73.988 31.938 73.9492 31.8477C74.3242 31.8477 74.6714 31.8477 75.0427 31.8477C75.3092 32.5174 75.5813 33.201 75.8647 33.9046Z" fill="white"/>
<path d="M88.0469 31.8281C88.3371 31.8281 88.5977 31.8281 88.87 31.8281C88.8782 31.9776 88.8848 32.0965 88.8935 32.255C89.2122 31.9724 89.5364 31.7486 89.9813 31.7763C89.9813 32.2114 89.9813 32.6313 89.9813 33.0809C89.8227 33.0809 89.6744 33.0638 89.5313 33.0841C89.1234 33.142 88.8884 33.414 88.8842 33.8259C88.8792 34.3213 88.883 34.8169 88.883 35.3124C88.883 35.3716 88.883 35.4309 88.883 35.5119C88.4777 35.5119 88.0901 35.5119 87.6846 35.5119C87.6846 34.2943 87.6846 33.0772 87.6846 31.8281C87.8009 31.8281 87.9092 31.8281 88.0469 31.8281Z" fill="white"/>
<path d="M39.7998 35.4138C39.648 37.0109 39.2453 38.5469 38.6053 40.0195C37.8495 41.7585 36.8207 43.3157 35.5209 44.6992C34.1357 46.1737 32.5399 47.3573 30.7212 48.2402C29.0814 49.0362 27.3557 49.5485 25.5418 49.7374C24.8399 49.8105 24.1314 49.863 23.4267 49.8556C21.8443 49.8391 20.2916 49.6005 18.7766 49.1282C16.6048 48.4512 14.661 47.3655 12.9475 45.8747C11.4161 44.5423 10.1617 42.9853 9.20809 41.1877C8.30005 39.476 7.7098 37.6645 7.46728 35.7431C7.40179 35.2243 7.38061 34.6997 7.34313 34.1775C7.32439 33.9163 7.29702 33.6539 7.30379 33.3928C7.36321 31.0997 7.81004 28.8931 8.7698 26.7977C9.47424 25.2597 10.3962 23.8665 11.5279 22.6143C12.7367 21.2768 14.1329 20.1688 15.7094 19.2901C17.3751 18.3618 19.1516 17.7545 21.0327 17.4503C21.2518 17.4149 21.4733 17.3949 21.7201 17.3661C21.7678 17.4388 21.8075 17.513 21.8078 17.5874C21.8118 18.6999 21.8109 19.8124 21.8092 20.9249C21.8091 20.9735 21.7889 21.0221 21.7398 21.0907C20.163 21.328 18.7279 21.8459 17.3828 22.6144C16.1442 23.322 15.0642 24.2235 14.1243 25.2977C13.0597 26.5144 12.2566 27.8827 11.7271 29.4068C11.1959 30.936 10.9359 32.5093 11.0503 34.1326C11.0814 34.5739 11.109 35.017 11.1741 35.4539C11.5508 37.9834 12.6298 40.1836 14.3514 42.0641C15.5389 43.3613 16.9405 44.3742 18.5562 45.0836C20.5789 45.9717 22.693 46.3026 24.8865 46.0882C26.4699 45.9334 27.9735 45.4853 29.389 44.7506C30.7949 44.0209 32.0171 43.0583 33.0678 41.8753C34.1816 40.6213 35.0096 39.1996 35.5553 37.6153C35.8017 36.9 35.9894 36.1687 36.0776 35.4149C37.3081 35.4136 38.5386 35.4123 39.7998 35.4138Z" fill="#FF9101"/>
<path d="M32.4917 35.4115C32.4268 36.0393 32.2239 36.6314 31.9685 37.2042C31.1434 39.0545 29.8468 40.485 28.0874 41.4879C26.9936 42.1114 25.8143 42.4838 24.5585 42.599C22.5674 42.7815 20.6879 42.4199 18.9719 41.374C16.6774 39.9755 15.2441 37.957 14.6933 35.3185C14.5289 34.5309 14.4813 33.7329 14.5393 32.9387C14.683 30.9706 15.3697 29.2052 16.6558 27.6953C17.9964 26.1213 19.6716 25.0899 21.7284 24.6573C21.7545 25.9237 21.7563 27.1915 21.7317 28.4882C20.9437 28.8016 20.2956 29.2517 19.7318 29.8359C18.8324 30.7678 18.3396 31.8846 18.2439 33.1644C18.1598 34.2893 18.417 35.346 19.0032 36.3205C20.2303 38.3602 22.6274 39.3694 24.9918 38.7667C26.0748 38.4907 26.9713 37.9079 27.7028 37.075C28.1311 36.5873 28.4728 36.0401 28.6748 35.4155C29.6242 35.4119 30.5736 35.4078 31.523 35.405C31.8361 35.4041 32.1493 35.4068 32.4917 35.4115Z" fill="#FF6838"/>
<path d="M43.9955 3.76804C44.4739 3.80444 44.7605 4.04099 44.881 4.4804C44.6842 4.54989 43.5035 4.56777 43.1001 4.50525C43.2129 4.04206 43.524 3.82767 43.9955 3.76804Z" fill="#F6F5F6"/>
</g>
<defs>
<clipPath id="clip0_40_102">
<rect width="94.6042" height="57" fill="white"/>
</clipPath>
</defs>
</svg>
