<svg width="15" height="21" viewBox="0 0 15 21" fill="none" xmlns="http://www.w3.org/2000/svg">
<path d="M15 4.77927C14.4484 5.07995 13.8558 5.28311 13.2328 5.37493C13.8756 4.90181 14.3565 4.15718 14.5858 3.27997C13.9819 3.72122 13.3209 4.03181 12.6317 4.19824C12.1682 3.58947 11.5543 3.18597 10.8852 3.05038C10.2162 2.91479 9.52948 3.0547 8.93172 3.44839C8.33395 3.84208 7.85857 4.46752 7.57938 5.22761C7.30018 5.9877 7.2328 6.83991 7.38769 7.65193C6.16402 7.57635 4.96694 7.18511 3.87415 6.5036C2.78135 5.82209 1.81726 4.86554 1.04444 3.69603C0.78019 4.25675 0.628248 4.90686 0.628248 5.59922C0.627953 6.22251 0.75273 6.83624 0.991508 7.38598C1.23029 7.93572 1.57568 8.40446 1.99705 8.75061C1.50837 8.73148 1.03048 8.56905 0.603145 8.27684V8.3256C0.603095 9.19978 0.848916 10.0471 1.2989 10.7237C1.74888 11.4003 2.3753 11.8646 3.07188 12.0377C2.61855 12.1886 2.14327 12.2109 1.68193 12.1027C1.87847 12.8549 2.26129 13.5127 2.77682 13.9839C3.29235 14.4551 3.91477 14.7163 4.55695 14.7308C3.46681 15.7835 2.12051 16.3545 0.734608 16.352C0.489109 16.3521 0.243819 16.3344 0 16.2992C1.40677 17.4118 3.04435 18.0023 4.71681 18C10.3783 18 13.4733 12.2319 13.4733 7.22936C13.4733 7.06683 13.47 6.90268 13.4641 6.74016C14.0661 6.20461 14.5857 5.54144 14.9987 4.78171L15 4.77927Z" fill="#023047"/>
</svg>
